<svg width="450" height="180" xmlns="http://www.w3.org/2000/svg" xmlns:xlink="http://www.w3.org/1999/xlink" version="1.1">
 <g>
  <title>Layer 1</title>
  <symbol id="font_0_52" transform="translate(22 0)">
   <path d="m0.24,0.506c-0.134,0 -0.24,-0.095 -0.24,-0.257c0,-0.153 0.101,-0.249 0.232,-0.249c0.117,0 0.241,0.078 0.241,0.257c0,0.148 -0.094,0.249 -0.233,0.249m-0.002,-0.066c0.104,0 0.145,-0.104 0.145,-0.186c0,-0.109 -0.063,-0.188 -0.147,-0.188c-0.086,0 -0.147,0.08 -0.147,0.186c0,0.092 0.045,0.188 0.149,0.188z" id="svg_5"/>
  </symbol>
  <symbol id="font_0_51" transform="translate(22 0)">
   <path d="m0.365,0.094c-0.025,-0.011 -0.058,-0.024 -0.108,-0.024c-0.096,0 -0.168,0.069 -0.168,0.181c0,0.101 0.06,0.183 0.171,0.183c0.048,0 0.081,-0.011 0.102,-0.023l0.02,0.068c-0.024,0.012 -0.07,0.025 -0.122,0.025c-0.158,0 -0.26,-0.108 -0.26,-0.257c0,-0.148 0.095,-0.247 0.241,-0.247c0.065,0 0.116,0.016 0.139,0.028l-0.015,0.066z" id="svg_6"/>
  </symbol>
  <symbol id="font_0_50" transform="translate(22 0)">
   <path d="m0,0.484l0,-0.484l0.087,0l0,0.219l0.23,0l0,-0.219l0.087,0l0,0.484l-0.087,0l0,-0.195l-0.23,0l0,0.195l-0.087,0z" id="svg_7"/>
  </symbol>
  <symbol id="font_0_4f" transform="translate(22 0)">
   <path d="m0,0.006c0.026,-0.002 0.082,-0.006 0.136,-0.006c0.095,0 0.255,0.016 0.255,0.143c0,0.07 -0.052,0.11 -0.123,0.12l0,0.002c0.055,0.012 0.101,0.049 0.101,0.109c0,0.108 -0.134,0.121 -0.215,0.121c-0.057,0 -0.12,-0.005 -0.154,-0.011l0,-0.478m0.084,0.424c0.021,0.002 0.039,0.004 0.068,0.004c0.088,0 0.13,-0.023 0.13,-0.071c0,-0.057 -0.067,-0.076 -0.132,-0.076l-0.066,0l0,0.143m-0.001,-0.201l0.064,0c0.084,0 0.154,-0.015 0.154,-0.085c0,-0.07 -0.088,-0.084 -0.147,-0.084c-0.028,0 -0.046,0.001 -0.071,0.004l0,0.165z" id="svg_8"/>
  </symbol>
  <symbol id="font_0_4e" transform="translate(22 0)">
   <path d="m0.386,0.011c-0.006,0.033 -0.008,0.074 -0.008,0.116l0,0.181c0,0.097 -0.036,0.198 -0.184,0.198c-0.061,0 -0.119,-0.017 -0.159,-0.043l0.02,-0.058c0.034,0.022 0.081,0.036 0.126,0.036c0.099,0 0.11,-0.072 0.11,-0.112l0,-0.01c-0.187,0.001 -0.291,-0.063 -0.291,-0.18c0,-0.07 0.05,-0.139 0.148,-0.139c0.069,0 0.121,0.034 0.148,0.072l0.003,0l0.007,-0.061l0.08,0m-0.093,0.163c0,-0.009 -0.002,-0.019 -0.005,-0.028c-0.014,-0.041 -0.054,-0.081 -0.117,-0.081c-0.045,0 -0.083,0.027 -0.083,0.084c0,0.094 0.109,0.111 0.205,0.109l0,-0.084z" id="svg_9"/>
  </symbol>
  <symbol id="font_0_4d" transform="translate(22 0)">
   <path d="m0.415,0.48c-0.042,0.005 -0.098,0.01 -0.156,0.01c-0.063,0 -0.122,-0.01 -0.162,-0.033c-0.037,-0.021 -0.064,-0.055 -0.064,-0.105c0,-0.074 0.065,-0.113 0.128,-0.12l0,-0.003c-0.022,-0.004 -0.04,-0.015 -0.055,-0.028c-0.043,-0.036 -0.055,-0.099 -0.076,-0.146c-0.009,-0.021 -0.019,-0.039 -0.03,-0.055l0.094,0c0.007,0.012 0.014,0.025 0.02,0.04c0.019,0.047 0.032,0.107 0.068,0.136c0.019,0.017 0.044,0.027 0.081,0.027l0.065,0l0,-0.203l0.087,0l0,0.48m-0.087,-0.217c-0.02,0 -0.039,0 -0.075,0c-0.052,0 -0.129,0.022 -0.129,0.084c0,0.067 0.071,0.084 0.131,0.084c0.031,0 0.051,-0.002 0.073,-0.005l0,-0.163z" id="svg_10"/>
  </symbol>
  <symbol id="font_0_1" transform="translate(22 0)">
   <path d="m-2147483520,-2147483520z" id="svg_11"/>
  </symbol>
  <symbol id="font_0_4c" transform="translate(22 0)">
   <path d="m0,0.484l0,-0.484l0.087,0l0,0.414l0.225,0l0,-0.414l0.088,0l0,0.484l-0.4,0z" id="svg_12"/>
  </symbol>
  <symbol id="font_0_4b" transform="translate(22 0)">
   <path d="m0.098,0.493l0,-0.195c0,-0.108 -0.005,-0.176 -0.05,-0.209c-0.012,-0.01 -0.031,-0.017 -0.048,-0.02l0.009,-0.069c0.045,0 0.072,0.011 0.096,0.03c0.063,0.041 0.076,0.132 0.076,0.268l0,0.126l0.166,0l0,-0.415l0.087,0l0,0.484l-0.336,0z" id="svg_13"/>
  </symbol>
  <symbol id="font_0_4a" transform="translate(22 0)">
   <path d="m0.424,0.236c0.001,0.009 0.003,0.023 0.003,0.041c0,0.089 -0.042,0.228 -0.2,0.228c-0.141,0 -0.227,-0.115 -0.227,-0.261c0,-0.146 0.089,-0.244 0.238,-0.244c0.077,0 0.13,0.016 0.161,0.03l-0.015,0.063c-0.033,-0.014 -0.071,-0.025 -0.134,-0.025c-0.088,0 -0.164,0.049 -0.166,0.168l0.34,0m-0.339,0.063c0.007,0.061 0.046,0.143 0.135,0.143c0.099,0 0.123,-0.087 0.122,-0.143l-0.257,0z" id="svg_14"/>
  </symbol>
  <symbol id="font_0_49" transform="translate(22 0)">
   <path d="m0.004,0l0.087,0l0,0.263l0.002,0c0.029,-0.048 0.085,-0.076 0.149,-0.076c0.114,0 0.22,0.086 0.22,0.26c0,0.147 -0.088,0.246 -0.205,0.246c-0.079,0 -0.136,-0.035 -0.172,-0.094l-0.002,0l-0.004,0.083l-0.079,0c0.002,-0.046 0.004,-0.096 0.004,-0.158l0,-0.524m0.087,0.478c0,0.012 0.003,0.025 0.006,0.036c0.017,0.066 0.073,0.109 0.133,0.109c0.093,0 0.144,-0.083 0.144,-0.18c0,-0.111 -0.054,-0.187 -0.147,-0.187c-0.063,0 -0.116,0.042 -0.132,0.103c-0.002,0.011 -0.004,0.023 -0.004,0.036l0,0.083z" id="svg_15"/>
  </symbol>
  <symbol id="font_0_48" transform="translate(22 0)">
   <path d="m0,0.484l0,-0.484l0.101,0c0.052,0.085 0.105,0.178 0.151,0.253c0.028,0.049 0.049,0.088 0.08,0.15l0.003,0c-0.004,-0.078 -0.006,-0.119 -0.006,-0.198l0,-0.205l0.084,0l0,0.484l-0.103,0l-0.151,-0.25c-0.032,-0.056 -0.049,-0.09 -0.078,-0.149l-0.003,0.001c0.004,0.069 0.005,0.117 0.005,0.194l0,0.204l-0.083,0z" id="svg_16"/>
  </symbol>
  <symbol id="font_0_47" transform="translate(22 0)">
   <path d="m0.13,0.682l0,-0.284c0,-0.108 -0.005,-0.239 -0.059,-0.292c-0.016,-0.015 -0.044,-0.031 -0.071,-0.036l0.011,-0.07c0.039,0 0.078,0.016 0.103,0.032c0.095,0.064 0.101,0.227 0.101,0.373l0,0.204l0.223,0l0,-0.601l0.088,0l0,0.674l-0.396,0z" id="svg_17"/>
  </symbol>
  <symbol id="font_0_46" transform="translate(22 0)">
   <path d="m0.313,0.696c-0.18,0 -0.313,-0.14 -0.313,-0.354c0,-0.204 0.125,-0.342 0.303,-0.342c0.172,0 0.313,0.123 0.313,0.355c0,0.2 -0.119,0.341 -0.303,0.341m-0.004,-0.071c0.145,0 0.215,-0.14 0.215,-0.274c0,-0.153 -0.078,-0.28 -0.216,-0.28c-0.137,0 -0.215,0.129 -0.215,0.273c0,0.148 0.072,0.281 0.216,0.281z" id="svg_18"/>
  </symbol>
  <symbol id="font_0_45" transform="translate(22 0)">
   <path d="m0,0.674l0,-0.674l0.087,0l0,0.601l0.271,0l0,0.073l-0.358,0z" id="svg_19"/>
  </symbol>
  <symbol id="font_0_44" transform="translate(22 0)">
   <path d="m0.205,0l0.088,0l0,0.6l0.206,0l0,0.074l-0.499,0l0,-0.074l0.205,0l0,-0.6z" id="svg_20"/>
  </symbol>
  <symbol id="font_0_43" transform="translate(22 0)">
   <path d="m0,0.674l0,-0.674l0.093,0l0.211,0.335c0.046,0.075 0.092,0.153 0.125,0.227l0.003,-0.001c-0.007,-0.085 -0.008,-0.165 -0.008,-0.274l0,-0.287l0.082,0l0,0.674l-0.087,0l-0.218,-0.347c-0.049,-0.08 -0.091,-0.153 -0.125,-0.223l-0.002,0.001c0.006,0.09 0.008,0.178 0.008,0.285l0,0.284l-0.082,0z" id="svg_21"/>
  </symbol>
  <symbol id="font_0_42" transform="translate(22 0)">
   <path d="m0,0.674l0,-0.674l0.087,0l0,0.601l0.313,0l0,-0.601l0.087,0l0,0.674l-0.487,0z" id="svg_22"/>
  </symbol>
  <use xlink:href="#font_0_1" transform="matrix(12 0 0 -12 2.57698e+10 -2.57698e+10)" id="svg_31" y="0" x="0"/>
  <use xlink:href="#font_0_1" transform="matrix(12 0 0 -12 2.57698e+10 -2.57698e+10)" id="svg_32" y="0" x="0"/>
  <use xlink:href="#font_0_1" transform="matrix(12 0 0 -12 2.57698e+10 -2.57698e+10)" id="svg_39" y="0" x="0"/>
  <clipPath id="cp1" transform="translate(22 0)">
   <path d="m-288.94482,-262.63861l841.89001,0l0,595.276l-841.89001,0l0,-595.276z" id="svg_56"/>
  </clipPath>
  <path d="m151.83328,90.08052l-11.60001,37.94202l-7.20898,0l-11.87402,-23.03601l-7.043,23.03601l-8.672,0l11.60001,-37.94202l7.263,0l11.819,23.03601l7.043,-23.03601l8.673,0z" fill="#ffffff" id="svg_53"/>
  <path d="m166.50229,97.23491l-12.14099,0l2.18698,-7.15399l33.06403,0l-2.18802,7.15399l-12.14099,0l-9.41298,30.78699l-8.78102,0l9.41299,-30.78699z" fill="#ffffff" id="svg_54"/>
  <path d="m214.25989,120.97581l-2.15399,7.046l-29.37802,0l11.60002,-37.94099l28.67299,0l-2.15399,7.04599l-19.94699,0l-2.519,8.23901l17.616,0l-2.08701,6.82898l-17.617,0l-2.68399,8.78101l20.651,0l-0.00002,0z" fill="#ffffff" id="svg_55"/>
  <path d="m249.93988,98.94292c-1.026,-1.13901 -2.85699,-1.70801 -5.495,-1.70801l-7.15399,0l-4.04401,13.22601l7.155,0c2.63698,0 4.819,-0.578 6.547,-1.73502c1.72598,-1.15598 2.91,-2.78198 3.55098,-4.87799c0.651,-2.131 0.46501,-3.767 -0.56,-4.905m-6.668,29.07902l-4.086,-10.56901l-0.43399,0l-7.642,0l-3.23203,10.56901l-8.78,0l11.60001,-37.94102l16.423,0c3.36099,0 6.10698,0.56 8.23999,1.67999c2.132,1.12 3.55199,2.70998 4.25999,4.769c0.707,2.06001 0.63,4.49899 -0.23199,7.31799c-0.862,2.819 -2.28198,5.24899 -4.261,7.29001c-1.97998,2.04199 -4.38098,3.60498 -7.20599,4.689l4.78101,12.19501l-9.431,0z" fill="#ffffff" id="svg_58"/>
  <path d="m286.79517,108.69872c1.72101,-1.138 2.90201,-2.755 3.54199,-4.85101c0.65201,-2.13098 0.465,-3.767 -0.55899,-4.905c-1.026,-1.13898 -2.85699,-1.70798 -5.495,-1.70798l-7.15402,0l-4.02698,13.172l7.15399,0c2.63699,0 4.81702,-0.569 6.539,-1.70801m8.40399,-16.938c2.13104,1.12 3.552,2.70999 4.26001,4.77c0.70697,2.05898 0.63,4.49799 -0.23199,7.31699c-0.85101,2.78302 -2.263,5.21301 -4.23499,7.29102c-1.97202,2.078 -4.36502,3.66698 -7.17603,4.769c-2.81299,1.103 -5.89801,1.65298 -9.259,1.65298l-7.64301,0l-3.19803,10.46201l-8.78101,0l11.60001,-37.94202l16.42401,0c3.36002,0 6.10602,0.561 8.23999,1.68002" fill="#ffffff" id="svg_59"/>
  <path d="m328.91248,98.94292c-1.026,-1.13901 -2.85699,-1.70801 -5.495,-1.70801l-7.15399,0l-4.04401,13.22601l7.15497,0c2.63702,0 4.81903,-0.578 6.547,-1.73502c1.72601,-1.15598 2.91003,-2.78198 3.55103,-4.87799c0.651,-2.131 0.46503,-3.767 -0.56,-4.905m-6.66803,29.07902l-4.086,-10.56901l-0.43396,0l-7.64197,0l-3.23206,10.56901l-8.78003,0l11.599,-37.94102l16.42407,0c3.36096,0 6.10699,0.56 8.23999,1.67999c2.13196,1.12 3.552,2.70998 4.25995,4.769c0.70703,2.06001 0.63,4.49899 -0.23199,7.31799c-0.862,2.819 -2.28198,5.24899 -4.26099,7.29001c-1.97998,2.04199 -4.38098,3.60498 -7.20599,4.689l4.78101,12.19501l-9.43103,0z" fill="#ffffff" id="svg_60"/>
  <path d="m387.50897,110.89421c-0.867,-1.48099 -2.11603,-2.565 -3.74902,-3.25201c-1.633,-0.68597 -3.78998,-1.37299 -6.46997,-2.06c-2.59601,-0.61398 -4.47302,-1.237 -5.63501,-1.87c-1.16199,-0.63097 -1.54297,-1.599 -1.146,-2.89999c0.39801,-1.29999 1.30499,-2.34799 2.72302,-3.14301c1.41699,-0.79498 3.354,-1.19299 5.81195,-1.19299c3.505,0 6.70605,0.99399 9.604,2.98099l0.16901,-0.23798l2.37604,-7.771c-0.93304,-0.45401 -1.96301,-0.84201 -3.10504,-1.151c-2.13696,-0.578 -4.41498,-0.867 -6.836,-0.867c-3.46796,0 -6.56598,0.52399 -9.28796,1.57098c-2.724,1.04901 -4.95502,2.46701 -6.69403,4.255c-1.73999,1.78899 -2.94598,3.78601 -3.62,5.98999c-0.77301,2.53 -0.73297,4.55301 0.12201,6.07101c0.85498,1.517 2.099,2.62 3.73199,3.306c1.63403,0.68698 3.789,1.37399 6.47101,2.06c1.74597,0.43399 3.11499,0.83099 4.10699,1.19199c0.992,0.362 1.74902,0.84003 2.271,1.436c0.52203,0.59702 0.64502,1.34702 0.36902,2.25c-0.375,1.229 -1.27301,2.21402 -2.69202,2.95401c-1.41797,0.741 -3.37402,1.11099 -5.86798,1.11099c-2.24103,0 -4.37103,-0.36099 -6.39001,-1.08398c-2.01898,-0.72302 -3.659,-1.68002 -4.92102,-2.87302l-0.06097,0.08099l-2.53503,8.29202c0.966,0.53198 2.08905,1.00198 3.37201,1.41098c2.55103,0.81303 5.32703,1.22001 8.32703,1.22001c3.46802,0 6.57397,-0.52499 9.315,-1.57301c2.74097,-1.047 4.99097,-2.466 6.74896,-4.255c1.75702,-1.78799 2.96704,-3.76598 3.63,-5.935c0.77301,-2.52899 0.72705,-4.534 -0.13898,-6.01599" fill="#ffffff" id="svg_61"/>
  <path d="m421.79828,120.97581l-2.15399,7.046l-29.37799,0l11.59998,-37.94099l28.67303,0l-2.15405,7.04599l-19.94696,0l-2.51904,8.23901l17.61603,0l-2.08801,6.82898l-17.61597,0l-2.68402,8.78101l20.651,0z" fill="#ffffff" id="svg_62"/>
  <path d="m209.01788,55.23021c-0.655,-1.047 -1.603,-1.78799 -2.84201,-2.22101c-1.241,-0.43298 -2.931,-0.867 -5.07397,-1.29999c-1.742,-0.32501 -3.091,-0.64099 -4.04401,-0.948c-0.95401,-0.306 -1.68201,-0.785 -2.18802,-1.436c-0.505,-0.64999 -0.59198,-1.51599 -0.26099,-2.599c0.42998,-1.409 1.40099,-2.54602 2.91199,-3.41299c1.51102,-0.867 3.49402,-1.29999 5.95001,-1.29999c3.23499,0 5.77498,0.806 7.62299,2.41599l1.22101,-3.992c-0.72598,-0.38098 -1.561,-0.71698 -2.53198,-0.99698c-1.69302,-0.48801 -3.46002,-0.73203 -5.302,-0.73203c-3.539,0 -6.53403,0.759 -8.983,2.27502c-2.45,1.51697 -4.04001,3.46799 -4.76801,5.84998c-0.586,1.91501 -0.548,3.414 0.11499,4.49701c0.66101,1.08301 1.62799,1.85098 2.89801,2.302c1.26999,0.452 2.995,0.89398 5.17398,1.327c1.64502,0.29001 2.944,0.58701 3.89801,0.89398c0.953,0.30701 1.681,0.75803 2.186,1.354c0.50299,0.59601 0.59601,1.418 0.276,2.465c-0.453,1.48102 -1.427,2.62701 -2.92099,3.44c-1.49402,0.81201 -3.54202,1.21802 -6.14102,1.21802c-1.95099,0 -3.73801,-0.298 -5.36099,-0.89301c-1.58801,-0.58301 -2.82599,-1.332 -3.72601,-2.24301l-1.27798,4.181c0.75299,0.491 1.65298,0.93201 2.737,1.31201c1.90901,0.668 4.01802,1.00201 6.33,1.00201c3.683,0 6.78601,-0.73102 9.31003,-2.194c2.52399,-1.46301 4.16699,-3.43999 4.92899,-5.93201c0.56299,-1.84201 0.517,-3.285 -0.138,-4.33301" fill="#ffffff" id="svg_63"/>
  <path d="m232.32309,62.895c1.888,-0.92099 3.543,-2.229 4.965,-3.927c1.42099,-1.69699 2.46399,-3.629 3.12701,-5.79599c0.66199,-2.16702 0.80099,-4.099 0.41699,-5.797c-0.384,-1.69601 -1.23901,-3.00601 -2.564,-3.92599c-1.32501,-0.92102 -3,-1.38202 -5.022,-1.38202c-2.022,0 -3.978,0.461 -5.866,1.38202c-1.888,0.91998 -3.55301,2.22998 -4.992,3.92599c-1.44,1.698 -2.491,3.62997 -3.15399,5.797c-0.66202,2.16699 -0.793,4.099 -0.39001,5.79599c0.401,1.698 1.26501,3.00601 2.591,3.927c1.32501,0.92099 2.99899,1.38101 5.021,1.38101c2.022,0 3.97801,-0.46002 5.867,-1.38101m-13.759,2.92499c-1.823,-1.246 -3.02899,-2.97 -3.61899,-5.17297c-0.591,-2.203 -0.461,-4.694 0.38998,-7.47501c0.85001,-2.78101 2.24301,-5.27301 4.181,-7.47601c1.93701,-2.202 4.19501,-3.918 6.77301,-5.146c2.577,-1.22702 5.23898,-1.841 7.98401,-1.841c2.745,0 5.03098,0.61398 6.85898,1.841c1.82602,1.228 3.026,2.944 3.599,5.146c0.573,2.203 0.43402,4.69501 -0.41599,7.47601c-0.85002,2.78101 -2.23503,5.272 -4.155,7.47501c-1.91902,2.20297 -4.17102,3.92697 -6.754,5.17297c-2.58401,1.24599 -5.24899,1.86902 -7.99301,1.86902c-2.74501,0 -5.02899,-0.62302 -6.849,-1.86902" fill="#ffffff" id="svg_64"/>
  <path d="m276.82169,64.0056c-0.81799,0.25299 -1.62399,0.379 -2.418,0.379c-1.59,0 -2.673,-0.44199 -3.25,-1.327c-0.57901,-0.88501 -0.608,-2.17499 -0.08899,-3.87302l5.19998,-17.00897l8.66699,0l0.99301,-3.25l-8.66599,0l1.90399,-6.229l-3.84601,0l-1.90399,6.229l-5.96802,0l-8.65799,0l1.02701,-3.35901c0.54099,-1.76901 1.37399,-3.10501 2.49899,-4.009c1.12396,-0.901 2.517,-1.353 4.17902,-1.353c1.409,0 2.50299,0.34302 3.31598,0.991l1.077,-3.52301c-0.189,-0.08499 -0.35098,-0.18799 -0.56097,-0.258c-0.918,-0.306 -1.918,-0.45999 -3.00201,-0.45999c-2.74399,0 -5.09799,0.758 -7.06,2.27499c-1.96301,1.517 -3.34,3.57498 -4.13501,6.17499l-1.077,3.52103l-5.09201,0l-0.99399,3.25l5.09201,0l-7.71701,25.24197l3.84601,0l7.71698,-25.24197l7.42603,0l1.12299,0l5.96802,0l-5.26602,17.22498c-0.806,2.63702 -0.70898,4.67801 0.29501,6.12201c1.00198,1.444 2.84,2.16602 5.51199,2.16602c1.15601,0 2.319,-0.17204 3.48901,-0.51402c0.34097,-0.10001 0.64798,-0.241 0.96799,-0.367l1.086,-3.55402c-0.52899,0.302 -1.08099,0.56702 -1.681,0.75201" fill="#ffffff" id="svg_65"/>
  <path d="m145.53146,35.0833c2.858,-1.35501 5.77797,-2.03198 8.76099,-2.039l1.07501,0l1.08401,-3.547l-1.71402,0l-0.005,0.01401c-3.56998,0.07397 -7.03299,0.88599 -10.388,2.45599c-3.51898,1.647 -6.58298,3.92999 -9.19,6.849c-2.60699,2.918 -4.46399,6.185 -5.56998,9.802c-1.10501,3.616 -1.246,6.884 -0.42401,9.80301c0.823,2.918 2.5,5.20099 5.03,6.84799c2.53,1.647 5.672,2.47101 9.42801,2.47101c0.02701,0 0.08899,0 0.16098,0l0.00302,-0.01001l0.97699,0.01001l1.048,-3.42801l-1.02701,0c-0.00299,0 -0.009,0 -0.011,0c-2.99301,-0.017 -5.47501,-0.798 -7.51401,-2.15799c-2.04001,-1.36102 -3.39401,-3.22302 -4.061,-5.58603c-0.66901,-2.36398 -0.55301,-5.01398 0.345,-7.94998c0.897,-2.936 2.40202,-5.586 4.51599,-7.94901c2.112,-2.36298 4.604,-4.22598 7.47601,-5.586" fill="#ffffff" id="svg_66"/>
  <path d="m160.85168,29.49712l-1.08499,3.547l13.44498,0l-10.50897,34.37399l4.008,0l10.50998,-34.37399l13.32501,0l0.024,-0.078l1.06003,-3.46597l0,-0.00302l-30.77803,0l0,-0.00001z" fill="#ffffff" id="svg_67"/>
  <path d="m56.70657,28.9196l-3.15298,10.315l-9.004,29.44699l20.62997,0l5.849,-19.133l41.259,0l6.30701,-20.629l-61.888,0l0,0.00001z" fill="#ffffff" id="svg_68"/>
  <path d="m79.50159,89.31111l20.62901,0l6.30701,-20.629l-20.629,0l-6.30701,20.629z" fill="#ffffff" id="svg_69"/>
  <path d="m58.87238,89.31111l-20.62899,0l-9.00301,29.448l-3.15399,10.315l61.88798,0l6.30701,-20.63l-41.259,0l5.85001,-19.133l-0.00001,0z" fill="#ffffff" id="svg_70"/>
  <path d="m337.90796,128.02229l8.78101,0l6.23102,-20.38l-8.78101,0l-6.23102,20.38z" fill="#ffffff" id="svg_71"/>
  <path d="m349.508,90.08052l-2.685,8.78101l8.78101,0l2.685,-8.78101l-8.78101,0z" fill="#ffffff" id="svg_72"/>
  <path d="m25.14987,152.1144c-0.412,0.302 -0.881,0.53299 -1.408,0.69101c-0.52699,0.16 -1.04998,0.23999 -1.569,0.23999c-1.142,0 -1.92599,-0.315 -2.356,-0.94501c-0.42699,-0.629 -0.47099,-1.50598 -0.127,-2.63l2.625,-8.58397l-2.418,0l0.332,-1.082l2.416,0l0.87801,-2.86899l1.259,0l-0.87801,2.86899l4.17801,0l-0.33,1.082l-4.17801,0l-2.58699,8.45801c-0.261,0.85599 -0.255,1.50598 0.021,1.95099c0.27499,0.444 0.815,0.668 1.61999,0.668c0.82201,0 1.576,-0.24399 2.263,-0.73099l0.259,0.88199l0,-0.00002z" fill="#ffffff" id="svg_73"/>
  <path d="m53.4556,139.80489l-9.00201,13.13901l-1.18399,0l-0.94299,-11.40302l-7.94202,11.40302l-1.157,0l-0.967,-13.13901l1.20799,0l0.79401,11.73001l8.06701,-11.73001l1.083,0l0.87598,11.70499l8.009,-11.70499l1.15802,0z" fill="#ffffff" id="svg_74"/>
  <path d="m60.38547,141.4283c-0.866,0.41199 -1.634,0.98999 -2.307,1.73599c-0.672,0.74802 -1.18699,1.591 -1.54099,2.53l10.069,0c0.23598,-0.939 0.241,-1.77798 0.01398,-2.517c-0.22598,-0.73801 -0.64499,-1.31598 -1.25497,-1.73599c-0.61002,-0.42001 -1.37901,-0.629 -2.302,-0.629c-0.92199,0 -1.81601,0.20499 -2.67801,0.616m7.13,5.24799l-11.30301,0c-0.28,1.02403 -0.297,1.93503 -0.05402,2.73204c0.24103,0.797 0.71203,1.414 1.40902,1.84998c0.69699,0.436 1.56699,0.65402 2.60801,0.65402c0.85498,0 1.69598,-0.155 2.51999,-0.465c0.824,-0.311 1.57299,-0.76901 2.24398,-1.37303l0.47601,0.83099c-0.78,0.68903 -1.66,1.21701 -2.63699,1.586c-0.97601,0.36902 -1.96899,0.55402 -2.975,0.55402c-1.30902,0 -2.388,-0.28499 -3.237,-0.85602c-0.85001,-0.56998 -1.409,-1.35898 -1.68,-2.36696c-0.272,-1.00601 -0.211,-2.15602 0.18598,-3.44801c0.38903,-1.27501 1.01102,-2.42 1.86801,-3.43599c0.85501,-1.01602 1.84903,-1.80801 2.979,-2.37802c1.13199,-0.57098 2.293,-0.85599 3.483,-0.85599c1.19299,0 2.177,0.28 2.952,0.84398c0.77701,0.561 1.284,1.34602 1.522,2.35199c0.237,1.00702 0.16,2.14903 -0.229,3.423l-0.13199,0.353l0.00001,0z" fill="#ffffff" id="svg_75"/>
  <path d="m78.68637,151.25832c0.918,-0.504 1.716,-1.23401 2.39301,-2.19l0.755,-2.46701l-4.479,0c-1.29401,0 -2.30199,0.23503 -3.02301,0.70401c-0.72298,0.47102 -1.20998,1.117 -1.46201,1.93901c-0.26099,0.85602 -0.14899,1.53201 0.33701,2.026c0.487,0.496 1.30899,0.74199 2.46701,0.74199c1.091,0 2.09399,-0.25197 3.01199,-0.754m4.82501,-10.308c0.61899,0.83101 0.681,2.05199 0.18999,3.66202l-2.54901,8.332l-1.20801,0l0.71701,-2.341c-0.65601,0.771 -1.452,1.37201 -2.38699,1.79999c-0.93701,0.42801 -1.96803,0.642 -3.09201,0.642c-1.45999,0 -2.508,-0.34299 -3.14401,-1.03299c-0.638,-0.68701 -0.784,-1.59399 -0.44,-2.71799c0.332,-1.091 0.99402,-1.97501 1.98102,-2.65601c0.98898,-0.67999 2.33798,-1.01901 4.05,-1.01901l4.505,0l0.32401,-1.05701c0.37299,-1.22499 0.328,-2.15599 -0.14099,-2.79399c-0.46802,-0.638 -1.34003,-0.95601 -2.61401,-0.95601c-0.87299,0 -1.754,0.15001 -2.644,0.45299c-0.888,0.30104 -1.68799,0.70401 -2.39499,1.20802l-0.353,-0.90698c0.83401,-0.586 1.76402,-1.04402 2.78601,-1.371c1.02399,-0.328 2.03699,-0.491 3.04599,-0.491c1.62601,0 2.74899,0.41498 3.36801,1.24597" fill="#ffffff" id="svg_76"/>
  <path d="m95.68536,145.9214l-4.37799,3.121l-1.19302,3.90201l-1.258,0l5.71001,-18.677l1.258,0l-4.039,13.215l10.75299,-7.67801l1.612,0l-7.28799,5.31201l3.82401,7.828l-1.561,0l-3.44,-7.02301l-0.00002,0z" fill="#ffffff" id="svg_77"/>
  <path d="m122.18167,151.25832c0.918,-0.504 1.716,-1.23401 2.39301,-2.19l0.755,-2.46701l-4.479,0c-1.29401,0 -2.30199,0.23503 -3.02301,0.70401c-0.72298,0.47102 -1.20998,1.117 -1.46201,1.93901c-0.26099,0.85602 -0.14899,1.53201 0.33701,2.026c0.487,0.496 1.30899,0.74199 2.46701,0.74199c1.091,0 2.09399,-0.25197 3.01199,-0.754m4.82501,-10.308c0.61899,0.83101 0.681,2.05199 0.18999,3.66202l-2.54901,8.332l-1.20801,0l0.71701,-2.341c-0.65601,0.771 -1.452,1.37201 -2.38699,1.79999c-0.937,0.42801 -1.96802,0.642 -3.092,0.642c-1.45999,0 -2.508,-0.34299 -3.14401,-1.03299c-0.638,-0.68701 -0.784,-1.59399 -0.44,-2.71799c0.332,-1.091 0.99402,-1.97501 1.98102,-2.65601c0.98898,-0.67999 2.33798,-1.01901 4.05,-1.01901l4.505,0l0.32401,-1.05701c0.37299,-1.22499 0.328,-2.15599 -0.14099,-2.79399c-0.46802,-0.638 -1.34003,-0.95601 -2.61401,-0.95601c-0.87299,0 -1.754,0.15001 -2.644,0.45299c-0.888,0.30104 -1.688,0.70401 -2.39499,1.20802l-0.353,-0.90698c0.83401,-0.586 1.76401,-1.04402 2.78601,-1.371c1.02399,-0.328 2.03699,-0.491 3.04599,-0.491c1.62601,0 2.74899,0.41498 3.36801,1.24597" fill="#ffffff" id="svg_78"/>
  <path d="m146.28098,141.1389c0.664,0.95599 0.72101,2.33301 0.172,4.12799l-2.34601,7.677l-1.25899,0l2.31702,-7.57599c0.45001,-1.47699 0.42099,-2.60101 -0.09,-3.37303c-0.51001,-0.77196 -1.436,-1.15799 -2.78001,-1.15799c-1.543,0 -2.90099,0.46101 -4.07201,1.38501c-1.17201,0.92201 -1.99699,2.164 -2.47299,3.72502l-2.13998,6.99698l-1.258,0l4.01598,-13.13901l1.20801,0l-0.86902,2.84401c0.73599,-0.92299 1.63202,-1.64401 2.689,-2.164c1.05701,-0.521 2.19702,-0.78101 3.42302,-0.78101c1.64401,0 2.79799,0.478 3.46199,1.435" fill="#ffffff" id="svg_79"/>
  <path d="m160.20697,151.20711c0.94,-0.46899 1.76901,-1.12399 2.487,-1.96301c0.71799,-0.83899 1.241,-1.79599 1.57001,-2.87c0.328,-1.073 0.38901,-2.03 0.186,-2.87c-0.207,-0.83801 -0.63501,-1.49301 -1.28802,-1.96298c-0.65399,-0.46902 -1.48499,-0.70401 -2.491,-0.70401c-1.00598,0 -1.98099,0.23499 -2.922,0.70401c-0.94,0.46997 -1.76898,1.12497 -2.487,1.96298c-0.71799,0.84 -1.24298,1.797 -1.57001,2.87c-0.32797,1.07401 -0.39099,2.03101 -0.18597,2.87c0.20599,0.83902 0.63498,1.49402 1.28799,1.96301c0.65399,0.47101 1.48499,0.70499 2.491,0.70499c1.00699,0 1.98001,-0.23398 2.922,-0.70499m9.017,-16.94l-5.711,18.677l-1.23199,0l0.94699,-3.095c-0.83397,1.02301 -1.806,1.811 -2.91501,2.36499c-1.10898,0.55403 -2.258,0.83102 -3.44998,0.83102c-1.22601,0 -2.246,-0.285 -3.06099,-0.85602c-0.815,-0.57001 -1.35101,-1.35901 -1.604,-2.366c-0.25601,-1.00699 -0.185,-2.15698 0.20999,-3.44902c0.39502,-1.29198 1.02902,-2.44501 1.901,-3.461c0.87302,-1.01497 1.89,-1.80399 3.05301,-2.36499c1.16101,-0.56299 2.35501,-0.84398 3.57999,-0.84398c1.173,0 2.14301,0.27698 2.90503,0.82999c0.76099,0.55402 1.25998,1.327 1.49399,2.31702l2.625,-8.58401l1.258,0l-0.00002,0z" fill="#ffffff" id="svg_80"/>
  <path d="m187.10117,152.1144c-0.41199,0.302 -0.88101,0.53299 -1.40799,0.69101c-0.52701,0.16 -1.05002,0.23999 -1.569,0.23999c-1.142,0 -1.92598,-0.315 -2.35602,-0.94501c-0.427,-0.629 -0.47098,-1.50598 -0.12698,-2.63l2.625,-8.58397l-2.418,0l0.332,-1.082l2.416,0l0.87799,-2.86899l1.25899,0l-0.87799,2.86899l4.17801,0l-0.33002,1.082l-4.17899,0l-2.586,8.45801c-0.26102,0.85599 -0.255,1.50598 0.021,1.95099c0.27499,0.444 0.815,0.668 1.62,0.668c0.82199,0 1.576,-0.24399 2.263,-0.73099l0.259,0.88199l0,-0.00002z" fill="#ffffff" id="svg_81"/>
  <path d="m199.77228,140.47231c1.01199,-0.51198 2.13101,-0.76801 3.35599,-0.76801l-0.37697,1.233l-0.29402,-0.02399c-1.45999,0 -2.74199,0.457 -3.84299,1.37c-1.10202,0.91501 -1.90302,2.18698 -2.40002,3.814l-2.09299,6.84698l-1.258,0l4.017,-13.13898l1.20801,0l-0.87802,2.86899c0.69702,-0.957 1.55002,-1.69 2.56201,-2.202" fill="#ffffff" id="svg_82"/>
  <path d="m212.09396,151.25832c0.918,-0.504 1.716,-1.23401 2.39301,-2.19l0.755,-2.46701l-4.48102,0c-1.29199,0 -2.3,0.23503 -3.02298,0.70401c-0.72102,0.47102 -1.21002,1.117 -1.46002,1.93901c-0.26199,0.85602 -0.14899,1.53201 0.33701,2.026c0.48502,0.496 1.30701,0.74199 2.46701,0.74199c1.09,0 2.09399,-0.25197 3.01199,-0.754m4.82501,-10.308c0.61899,0.83101 0.681,2.05199 0.18799,3.66202l-2.547,8.332l-1.20802,0l0.71701,-2.341c-0.657,0.771 -1.452,1.37201 -2.38901,1.79999c-0.93701,0.42801 -1.96701,0.642 -3.09,0.642c-1.45999,0 -2.51001,-0.34299 -3.146,-1.03299c-0.638,-0.68701 -0.78401,-1.59399 -0.44,-2.71799c0.33398,-1.091 0.99399,-1.97501 1.983,-2.65601c0.98801,-0.67999 2.336,-1.01901 4.04799,-1.01901l4.50598,0l0.32301,-1.05701c0.375,-1.22499 0.32901,-2.15599 -0.13899,-2.79399c-0.46802,-0.638 -1.34003,-0.95601 -2.616,-0.95601c-0.87201,0 -1.75201,0.15001 -2.64203,0.45299c-0.88998,0.30104 -1.68799,0.70401 -2.39697,1.20802l-0.35101,-0.90698c0.83302,-0.586 1.763,-1.04402 2.785,-1.371c1.02301,-0.328 2.03799,-0.491 3.04498,-0.491c1.62701,0 2.75101,0.41498 3.37003,1.24597" fill="#ffffff" id="svg_83"/>
  <path d="m224.30606,152.1891c-0.83301,-0.57001 -1.37799,-1.36401 -1.63901,-2.379c-0.26099,-1.01501 -0.19501,-2.16 0.19501,-3.436c0.39401,-1.29199 1.03201,-2.44598 1.91299,-3.461c0.88202,-1.01501 1.91202,-1.80399 3.09099,-2.36499c1.17802,-0.56302 2.40501,-0.84399 3.681,-0.84399c1.05702,0 1.95401,0.20499 2.69203,0.61697c0.73897,0.41101 1.25496,1.01102 1.55298,1.79901l-1.13898,0.67999c-0.27104,-0.65399 -0.70401,-1.14499 -1.30003,-1.47299c-0.59601,-0.32599 -1.314,-0.48999 -2.15201,-0.48999c-1.02399,0 -2.01398,0.23099 -2.96898,0.69199c-0.95599,0.461 -1.79199,1.112 -2.509,1.95102c-0.71799,0.83899 -1.24501,1.80399 -1.577,2.89398c-0.33398,1.09201 -0.39801,2.056 -0.19299,2.89499c0.20499,0.83902 0.64301,1.49002 1.31601,1.95102c0.67297,0.461 1.52298,0.69199 2.54599,0.69199c0.83801,0 1.655,-0.164 2.453,-0.48999c0.79599,-0.32799 1.52898,-0.819 2.19901,-1.47298l0.72299,0.67998c-0.77701,0.78799 -1.66199,1.38902 -2.651,1.79901c-0.991,0.41098 -2.01501,0.61697 -3.07101,0.61697c-1.276,0 -2.32898,-0.28497 -3.16199,-0.85599" fill="#ffffff" id="svg_84"/>
  <path d="m244.43729,141.4283c-0.866,0.41199 -1.634,0.98999 -2.30701,1.73599c-0.672,0.74802 -1.18698,1.591 -1.54099,2.53l10.069,0c0.23599,-0.939 0.241,-1.77798 0.01398,-2.517c-0.22598,-0.73801 -0.64499,-1.31598 -1.25497,-1.73599c-0.61002,-0.42001 -1.379,-0.629 -2.302,-0.629c-0.922,0 -1.81601,0.20499 -2.67801,0.616m7.13,5.24799l-11.30301,0c-0.28,1.02403 -0.298,1.93503 -0.05399,2.73204c0.241,0.797 0.71198,1.414 1.409,1.84998c0.69699,0.436 1.56699,0.65402 2.608,0.65402c0.85498,0 1.69597,-0.155 2.51999,-0.465c0.82401,-0.311 1.573,-0.76901 2.24399,-1.37303l0.47601,0.83099c-0.78,0.68903 -1.66,1.21701 -2.63699,1.586c-0.97601,0.36902 -1.96899,0.55402 -2.97501,0.55402c-1.30899,0 -2.388,-0.28499 -3.237,-0.85602c-0.85002,-0.56998 -1.40901,-1.35898 -1.67999,-2.36696c-0.272,-1.00601 -0.211,-2.15602 0.185,-3.44801c0.38998,-1.27501 1.01199,-2.42 1.86899,-3.43599c0.85501,-1.01602 1.849,-1.80801 2.979,-2.37802c1.13199,-0.57098 2.293,-0.85599 3.483,-0.85599c1.19298,0 2.177,0.28 2.952,0.84398c0.77701,0.561 1.284,1.34602 1.522,2.35199c0.237,1.00702 0.16,2.14903 -0.229,3.423l-0.13199,0.353z" fill="#ffffff" id="svg_85"/>
 </g>

</svg>
